<?xml version="1.0" standalone="no"?>
<!DOCTYPE svg PUBLIC "-//W3C//DTD SVG 20010904//EN"
 "http://www.w3.org/TR/2001/REC-SVG-20010904/DTD/svg10.dtd">
<svg version="1.0" xmlns="http://www.w3.org/2000/svg"
 width="724.000000px" height="633.000000px" viewBox="0 0 724.000000 633.000000"
 preserveAspectRatio="xMidYMid meet">
<g transform="translate(0.000000,633.000000) scale(0.100000,-0.100000)"
fill="#000000" stroke="none">
<path d="M5505 6320 c-87 -19 -257 -144 -424 -313 l-94 -95 -35 15 c-46 19
-111 12 -149 -15 l-28 -20 -45 23 c-54 27 -192 70 -274 84 -76 14 -292 14
-376 0 -145 -23 -390 -97 -390 -117 0 -4 69 -6 152 -4 351 7 654 -66 833 -201
57 -43 58 -43 96 -31 119 41 168 25 234 -77 77 -119 335 -370 485 -471 106
-72 187 -169 259 -312 l45 -91 7 45 c23 144 -3 282 -75 394 -49 77 -146 186
-222 251 -155 131 -234 278 -193 358 62 120 265 159 468 90 174 -59 401 -213
523 -356 29 -34 55 -64 59 -67 42 -37 245 -335 354 -520 37 -63 73 -124 80
-136 7 -11 41 -36 76 -55 59 -31 71 -34 149 -34 75 0 92 4 145 30 l60 31 0 50
c-1 133 -184 399 -481 699 -480 486 -631 613 -863 729 -96 49 -166 77 -241 97
-86 23 -105 25 -135 19z"/>
<path d="M1543 6285 c-165 -55 -308 -134 -483 -263 -125 -93 -645 -607 -788
-779 -169 -204 -266 -373 -267 -467 l0 -51 55 -30 c49 -27 64 -30 145 -30 84
0 94 2 154 35 46 25 71 46 88 75 395 675 627 918 1013 1060 62 23 92 28 175
28 55 1 118 -4 141 -11 89 -26 154 -95 154 -162 0 -62 -61 -169 -137 -241
-222 -211 -297 -304 -342 -424 -27 -69 -37 -193 -24 -275 l9 -55 43 85 c81
159 150 239 297 345 177 127 363 313 459 458 33 50 48 63 83 75 39 13 52 12
114 -3 69 -17 71 -17 97 4 184 146 498 227 858 219 90 -2 163 -2 163 -1 0 16
-170 74 -308 106 -83 19 -124 22 -287 21 -211 -1 -274 -12 -424 -77 l-76 -33
-40 23 c-47 27 -94 29 -136 7 l-31 -15 -126 123 c-205 200 -337 288 -429 288
-28 0 -91 -15 -150 -35z"/>
<path d="M3778 5304 c5 -95 -10 -208 -39 -293 -56 -162 -88 -448 -56 -510 21
-42 32 -34 51 36 9 38 49 151 88 253 62 163 71 195 75 270 6 97 -16 179 -68
262 -51 80 -56 78 -51 -18z"/>
<path d="M3367 5310 c-39 -88 -51 -163 -51 -320 -1 -191 7 -226 116 -485 44
-104 100 -237 124 -294 23 -57 47 -108 52 -113 15 -15 64 9 58 30 -9 30 -62
257 -141 607 -43 187 -92 401 -110 475 l-32 135 -16 -35z"/>
<path d="M916 5260 c-96 -63 -175 -135 -192 -177 -19 -45 -17 -84 7 -174 48
-178 212 -391 475 -616 57 -49 66 -53 113 -53 28 0 67 7 86 14 33 14 35 17 35
66 0 106 -13 130 -108 206 -182 144 -321 292 -377 404 -26 51 -27 60 -23 148
5 80 10 102 40 162 19 39 31 70 27 70 -3 0 -41 -23 -83 -50z"/>
<path d="M6241 5279 c34 -48 59 -142 59 -222 0 -85 -24 -145 -93 -235 -58 -74
-222 -232 -318 -304 -67 -50 -78 -63 -88 -102 -6 -25 -11 -67 -11 -95 0 -61
14 -71 106 -79 l63 -5 68 58 c112 96 267 257 332 345 118 159 181 334 153 428
-15 48 -98 129 -202 197 -83 53 -99 56 -69 14z"/>
<path d="M2840 4734 c0 -5 23 -25 52 -44 72 -49 140 -135 177 -224 30 -72 41
-117 56 -227 6 -46 6 -47 73 -77 37 -16 82 -33 100 -37 l32 -7 0 118 c0 253
-85 409 -260 475 -57 22 -230 39 -230 23z"/>
<path d="M4211 4729 c-76 -13 -172 -62 -216 -110 -20 -23 -49 -67 -64 -98 -24
-52 -26 -66 -26 -191 0 -74 4 -148 8 -164 9 -32 15 -32 121 -1 l54 16 -5 57
c-7 78 19 216 53 288 33 67 114 151 173 180 23 10 41 22 41 27 0 9 -70 7 -139
-4z"/>
<path class="glasses" d="M1875 4215 c-82 -8 -229 -21 -325 -30 -206 -19 -613 -63 -652 -71
-34 -7 -34 -5 -8 -259 11 -104 20 -196 20 -202 0 -7 11 -13 25 -13 36 0 79
-24 99 -55 11 -16 26 -88 41 -190 27 -187 60 -316 115 -455 37 -92 47 -112
101 -205 60 -104 192 -246 292 -314 175 -119 486 -195 722 -176 286 23 516
120 699 294 201 192 326 455 380 798 20 124 20 124 68 194 90 130 176 142 261
37 53 -66 68 -102 83 -207 60 -396 252 -727 526 -905 187 -122 385 -180 653
-192 354 -17 638 85 848 305 191 200 292 457 328 831 5 58 12 121 16 139 8 44
85 123 133 137 l35 10 7 209 c5 114 6 210 4 212 -5 5 -266 40 -551 73 -735 85
-1148 63 -1625 -88 -135 -43 -364 -88 -494 -98 -110 -9 -335 27 -476 75 -60
21 -285 68 -475 100 -327 55 -597 70 -850 46z m230 -205 c-3 -5 -11 -10 -16
-10 -21 0 -238 -109 -297 -148 -96 -65 -176 -146 -219 -220 -81 -138 -88 -180
-88 -539 0 -161 -1 -293 -2 -293 -2 0 -16 27 -33 60 -109 216 -151 484 -119
767 13 119 18 133 73 188 102 102 319 174 589 194 56 5 106 9 110 10 5 0 5 -3
2 -9z m2755 1 c0 -5 -12 -12 -26 -15 -48 -12 -210 -95 -285 -145 -147 -98
-248 -228 -285 -365 -26 -96 -38 -336 -26 -521 6 -93 9 -171 7 -173 -7 -7 -84
163 -109 241 -41 127 -58 247 -59 412 0 172 16 287 47 330 88 124 311 208 626
234 52 5 98 9 103 10 4 0 7 -3 7 -8z"/>
<path d="M1085 2845 c-10 -73 1 -303 20 -445 71 -543 310 -981 681 -1253 49
-35 52 -40 58 -95 14 -116 48 -290 76 -389 138 -478 394 -701 742 -647 96 15
200 50 300 100 63 32 68 33 97 18 55 -28 209 -38 576 -38 314 -1 369 1 429 17
38 10 75 22 81 27 8 7 43 -6 111 -40 337 -170 625 -117 830 153 58 76 133 230
174 357 29 90 81 328 95 435 7 48 10 52 71 94 94 64 243 209 323 314 254 335
381 749 381 1239 0 88 -4 158 -9 158 -5 0 -54 -78 -109 -172 -78 -136 -103
-189 -117 -248 -64 -274 -186 -534 -328 -702 -57 -67 -144 -144 -153 -135 -12
12 82 314 179 577 57 154 57 148 4 111 -79 -54 -156 -153 -234 -301 -86 -163
-173 -437 -173 -547 0 -60 -3 -91 -31 -288 -24 -173 -80 -375 -135 -494 -71
-151 -160 -252 -271 -304 -118 -54 -261 -39 -433 48 -150 76 -426 318 -636
558 l-60 69 -86 -99 c-127 -145 -310 -320 -424 -404 -336 -250 -598 -275 -783
-73 -149 162 -236 438 -286 899 -37 347 -183 707 -365 896 -69 73 -83 75 -64
12 100 -328 187 -647 182 -671 -5 -27 -158 131 -222 231 -70 107 -125 222
-165 346 -33 101 -75 282 -86 369 -6 45 -21 74 -100 190 -51 75 -101 148 -113
162 l-20 25 -7 -60z m2644 -2255 c44 -23 101 -60 126 -82 45 -40 105 -118 105
-137 0 -5 -35 -18 -77 -28 -110 -25 -384 -25 -503 0 -47 10 -87 20 -89 23 -14
14 162 218 215 247 41 24 88 34 115 27 15 -5 64 -27 108 -50z"/>
<path d="M3385 2229 c-159 -20 -314 -91 -385 -177 -45 -55 -80 -131 -92 -204
l-10 -65 41 -80 42 -80 87 -22 c140 -34 226 -25 238 25 8 32 -14 93 -44 121
l-25 23 24 9 c54 20 139 -14 176 -71 37 -55 42 -124 13 -176 -42 -75 -99 -84
-207 -31 -79 39 -169 51 -179 25 -13 -33 177 -235 312 -331 76 -55 193 -119
201 -111 4 3 11 77 18 163 6 87 14 149 17 138 4 -11 12 -78 19 -150 6 -71 15
-134 19 -138 9 -10 143 71 231 138 71 55 190 172 244 238 32 40 36 50 24 58
-23 16 -101 4 -164 -25 -86 -41 -122 -47 -162 -31 -100 42 -96 213 6 282 25
17 48 23 87 23 30 0 54 -3 54 -6 0 -3 -11 -19 -25 -35 -25 -30 -40 -82 -33
-115 9 -47 103 -56 237 -21 l85 22 38 70 c37 66 39 74 34 135 -16 209 -151
344 -398 395 -77 17 -402 19 -523 4z"/>
<path d="M2406 2148 c-41 -262 -82 -1001 -59 -1043 9 -16 12 -12 18 26 25 159
180 929 199 993 8 24 11 47 8 50 -3 4 -40 6 -83 6 l-78 0 -5 -32z"/>
<path d="M4648 2174 c-3 -3 -2 -22 3 -42 22 -88 72 -320 104 -482 19 -96 50
-254 70 -350 19 -96 35 -183 35 -192 0 -10 5 -18 12 -18 15 0 4 463 -16 675
-22 232 -38 389 -42 403 -2 8 -28 12 -82 12 -43 0 -81 -2 -84 -6z"/>
</g>
</svg>
