<svg xmlns="http://www.w3.org/2000/svg" width="722.322" height="630.903" viewBox="0 0 722.322 630.903"><g transform="translate(-13.294 689.903)"><path d="M171-687.4c-18.2,5.4-42.8,19.4-60,34.3-8.7,7.6-54.9,53.6-63.3,63.1-21.5,24.2-31.6,40.3-34.1,54.2-.7,3.7-.5,3.9,3.9,6.7,9.4,6,20.5,6.2,31.4.7,5.9-3,6.3-3.6,15.1-18.6,9.3-16,24-37.7,33.4-49.4,18.5-22.9,40.1-38.7,63.7-46.2,7-2.3,9.3-2.6,18.3-2.2,9.1.3,11,.7,16.2,3.3,10.5,5.4,13,13.3,7.8,24.5-2.7,5.8-9.1,14.2-13.4,17.4-5.5,4.1-20.9,20.6-24.3,25.9-8.8,13.7-10.9,21.2-10,34.9.3,4.9.9,8.8,1.3,8.8.3,0,1.7-2.4,3-5.3,2.6-6,10-17.5,14.5-22.6,1.6-1.9,8-7.1,14-11.6,20.9-15.5,38.1-32.5,47.2-46.6,5.7-8.7,12.3-10.8,22.5-7.3l4.6,1.5,4.8-3.6c6.5-5,18.2-10.7,28.2-13.9,14.4-4.5,24.2-5.8,48.7-6.5l23-.6L355-650.7c-18.7-6.2-27.7-7.7-46.5-7.7-18.3.1-28,1.9-42.3,8-7.5,3.3-8.5,3.5-10,2.1-3.2-2.9-8.8-3.7-14.3-2.1l-5,1.5-11.7-11.5c-20.7-20.3-34.4-29.7-43-29.5C180.7-689.9,175.7-688.8,171-687.4Z"/><path d="M556.5-686.6c-8.4,4.2-22.4,15.7-35.4,28.9l-9.4,9.6-3.1-1.6a14.751,14.751,0,0,0-14.1.6l-3.7,2.2-9.7-4c-15.3-6.2-23-7.5-42.1-7.5-13.3.1-18.5.6-26.4,2.4-9.1,2-25,7-28.6,9-.8.5,6.9.8,17,.9,22.5,0,35.2,1.6,51.5,6.3,9,2.6,24.4,10.2,29.5,14.5l3.9,3.4,5.7-1.7c6.1-1.8,13.1-1.4,16.4.9,1,.7,4.2,4.8,7.1,9.2,6.5,9.6,23.9,27.2,37.8,38,5.7,4.4,12.6,9.8,15.4,12,6.7,5.2,14.8,15.9,19.5,25.7,2,4.2,4,7.7,4.3,7.7.4.1,1-4.1,1.4-9.2.8-10.6-.3-16.1-4.8-25.2-5.1-10.2-8.5-14.5-24.4-30.2-12.5-12.4-15.8-16.3-18.3-21.5-5.6-11.9-3.4-19.9,7-25,17-8.5,40.2-3.5,67,14.5,7.7,5.2,26.7,23.1,30.7,29,1.3,1.8,3.1,4.2,4.1,5.3,5.3,5.8,24.8,35.4,35.4,53.9A28.713,28.713,0,0,0,720.8-525c6.3-1.4,12.1-4,14.1-6.4,2.8-3.3-2.9-18.3-12-31.7C713.3-577.4,701-591.2,675-617c-15.3-15.1-30.2-29.8-33.1-32.6-5.6-5.2-21.1-17-28.7-21.8-13-8.1-34.9-17.1-44.5-18.2C564.1-690.1,562.7-689.8,556.5-686.6Z"/><path d="M391-585.2c0,11.9-.8,17.4-4.5,29.2-4.1,13.3-5.9,24-5.9,35.5-.1,8.4.3,11.5,1.4,13.2,1.5,2.1,1.9,1.3,8.2-17,3.6-10.6,7.7-22.3,9.2-26.1,3.6-9.3,4.2-16.5,2.2-24.6-1.7-6.6-5.4-14.6-8.7-18.9C391-596.3,391-596.2,391-585.2Z"/><path d="M348-582.9c-3.6,13.3-4.6,25.1-3.1,36.8,1.5,11.8,4.7,21.2,15.5,46.6,4.3,9.9,8.9,21,10.4,24.7,2.2,5.6,3.1,6.8,5,6.8a3.279,3.279,0,0,0,2.8-1.3c.2-.7-.5-5.3-1.6-10.3-1.1-4.9-3.7-15.7-5.6-23.9-5.7-24.2-6.9-29.5-13.5-59.3-3.5-15.5-6.7-28.2-7-28.2C350.5-591,349.2-587.3,348-582.9Z"/><path d="M103.4-582.6c-8.8,5.9-16.1,12.8-17.5,16.4-1.2,3.2-1.1,11.9.2,16.7,1.5,5.6,8.3,18.8,13,25.4,6,8.4,16.3,19.6,26.6,28.9,14,12.8,15,13.4,20.3,12.7,10.8-1.4,10-.8,10-9,0-4.1-.4-8.5-.9-9.8S150-507,144.8-511c-18.5-14.5-34.1-32.1-38.3-43.3-2.9-7.7-1.1-20.6,4.1-30,.9-1.6,1.4-3,1.2-3.2C111.6-587.8,107.8-585.5,103.4-582.6Z"/><path d="M637-587.7a39.62,39.62,0,0,0,2.5,5.4c4.4,8.5,5.7,20.6,3.1,28.2-2.4,6.6-9.3,15.9-19,25.7A183.789,183.789,0,0,1,603-510c-9.9,7.9-9.3,6.9-9.8,16.3-.5,9.9-.6,9.9,9.5,11l5.2.6,7.8-6.4c8.8-7.2,23.8-22.2,30.6-30.7,12.6-15.7,20.3-35.2,17.7-44.8-1.1-4.1-6.6-10.2-14.1-15.7C643.5-584.3,637-588.4,637-587.7Z"/><path d="M300-531l-2.5.6,3.1,1.7c6,3.1,14.3,12.6,18.4,21.1,3.2,6.3,4.4,10.5,5.8,19l1.7,11,7.2,3.3c9.9,4.5,11,4.4,11.9-1.3.7-5.2-.2-17.6-1.8-24.4-2.5-10.4-9.9-21.2-17.4-25.6C319.5-529.7,305.7-532.5,300-531Z"/><path d="M430-529.4c-15.9,4.3-25.3,16.4-26.7,34.3-.4,6,.9,21.7,2,22.7.1.2,3.4-.6,7.2-1.6,3.9-1.1,7.3-2,7.8-2,.4,0,.7-3.8.7-8.4,0-11.3,1.4-17.8,5.5-26.3,3.7-7.5,11.2-15.4,17.6-18.6l3.4-1.7-6,.1A54.029,54.029,0,0,0,430-529.4Z"/><path class="glasses" d="M218-480.3c-27.1,1.4-115.6,10.6-117.2,12.1-.4.4.3,10.7,1.5,23l2.1,22.3,2.6.5c5.3,1.1,8.7,3.3,10.3,6.6.8,1.8,2.3,8.7,3.2,15.3,3.4,24.8,8.1,41.7,16.5,58.5q29.25,58.95,99.2,59c27.1,0,51.1-8.2,71.4-24.4,22.7-17.9,38-48.5,43.8-86.9,1.5-10.3,3.3-14.1,9.5-21a30.253,30.253,0,0,1,6.2-5.3c11.2-5.7,22.9,5.9,25.8,25.6,6.4,44,29.2,79.7,61.6,96.3,18.8,9.6,32,12.7,57.3,13.4,21.1.6,29.7-.3,42.1-4.3,35.2-11.5,58.7-38.1,69-78.4,2.3-9.1,3.8-19.1,5-33.1,1.3-14.9,5.2-21.6,14.8-25l3.1-1,.6-11.7c.3-6.4.7-15.7.8-20.7l.3-9-5-.7c-34.3-5.1-77.4-9.7-103.8-10.9-41.4-1.9-71.2,1.7-107.7,13-28.1,8.8-53.7,12-70.6,9.1-12.6-2.3-17.2-3.3-24.5-5.6-9.8-3.1-21.6-5.6-45.4-9.9C260.8-478.7,235-481.2,218-480.3Zm6,21.2c0,.4-2.1,1.6-4.7,2.6-15.8,5.9-31.9,16.1-41.3,26.2-10.8,11.5-14.2,20.4-16.1,41.8-1,12-.6,41,.7,47.7.4,2,.2,2.8-.9,2.8-1.7,0-8.7-14.8-11.7-25.1-3.6-11.8-5-23.3-5-39.7,0-16.5,1.3-28.4,3.6-31.9,6-9.5,20-16.9,40-21.2C203-459,224-460.9,224-459.1Zm275-.1c0,.5-1.9,1.7-4.2,2.7-24.5,10.3-42.3,23.6-49.7,37-6.8,12.5-7.5,17.4-7.6,51.7,0,17.3-.4,30.4-.9,30.1-1.1-.7-7.9-15.4-10.1-21.8-7.9-23.7-8.5-67.2-1-77.1,6.7-8.8,19.6-15.2,39-19.4C478.3-459,499-460.9,499-459.2Z"/><path d="M122-330.7c0,67.5,24.8,124,68.8,156.6,4.7,3.5,6.3,5.3,6.6,7.6,6.5,46.5,16.1,72.6,33.1,90,11.3,11.6,24.4,17.5,39,17.5,11.4,0,29.6-5.4,42.4-12.5,3.8-2.2,4.6-2.3,6-1.2,3.2,2.8,11.6,3.7,41.3,4.8,37.4,1.3,58.3.1,66.4-3.7,3.3-1.6,3.5-1.5,12.6,3,10.5,5.1,15.6,6.9,24.5,8.6,8,1.6,23.3.8,29.8-1.5,21-7.3,37.1-28.1,46.9-60.9,3.6-11.7,8.6-36.1,8.6-41.6,0-2.2.9-3.6,3.8-5.6,14.6-10.8,21.9-17.4,31.8-29,20.9-24.7,35.8-60.9,40.3-97.9,1.5-12.4,2.4-34.5,1.6-40.8l-.7-5.7-6.2,10.8c-3.4,5.9-7.3,12.5-8.7,14.7a46.337,46.337,0,0,0-6.4,14.5c-2.5,12.6-10.2,34.5-16.4,46.9-4.5,8.8-14.3,23-20.3,29.1-5.7,5.9-12.6,11.6-13.3,10.8-1.2-1.1,8.1-31.1,16.9-54.8,3.5-9.4,5.9-17,5.5-17-1.8,0-15.7,14.7-19.5,20.5-12.6,19.7-22.5,47.6-23.9,67-4.1,57.7-19.7,96.7-43,107.7-27.4,12.7-63.3-7.8-111.2-63.4-2.4-2.9-3.4-3.4-4-2.4-3.8,6.5-30.3,33.8-41.8,43-21.3,17.2-37.1,25.2-53.2,27.1-12,1.4-25.3-4.1-34.3-14.3-6.6-7.4-15.1-24.6-18.9-38.5-3.5-12.5-7.5-36.1-9.2-53.2-2.2-24.2-13.6-55.8-27.4-76.5-4.9-7.3-16.1-18.7-15.2-15.5.3,1.1,4.5,15.9,9.4,33,10,34.6,11,38.5,9.2,38.5-2.4,0-13.6-11-19.2-18.8-12.4-17.2-22.1-41.1-26.6-65.7a132.092,132.092,0,0,1-2.1-13.2c0-2.1-20.8-34.3-22.2-34.3C122.3-347,122-339.7,122-330.7ZM384.5-118.4c10.2,5.2,17.8,11.3,22.2,18,2.9,4.4,3.4,5.7,2.3,6.4-1.7,1.1-16.1,3.6-25.1,4.5-10.4,1-40.1-2.4-42.5-4.8-1.9-1.9,15.6-21.5,23.1-25.8C370.8-123.9,374.3-123.6,384.5-118.4Z"/><path d="M362.5-281c-15.9.8-21.1,1.8-31.4,5.9-12.8,5.2-21.9,14.7-25.6,26.7-2.5,8.3-2,13,2.4,20.8,4.2,7.7,5,8.1,19.9,10.6,9.3,1.6,16.9-1.1,15.7-5.5-.2-.6-.6-2.2-.9-3.7a16.609,16.609,0,0,0-3.3-5.8c-2.1-2.6-2.4-3.3-1.2-4.1,3.9-2.4,12.9.3,17.6,5.3,6.8,7.3,5.3,21.4-2.7,25.5-4.1,2.1-7.8,1.5-16.4-2.4-7.6-3.4-15.5-4.8-17.2-3-1.6,1.6,18.7,23.4,28.6,30.7,8.4,6.1,19.6,13,21.4,13,1.1,0,1.6-2.2,2-8.8,1.9-26.6,2.5-27.3,5-6.3a134.916,134.916,0,0,0,2,13.9c1.4,1.3,22-12.9,32.5-22.4,6-5.4,17.1-18,17.1-19.3,0-3-11.7-1.1-18.9,3-5.1,3-11.2,3.5-15,1.3-9.4-5.5-8.8-21.6,1-28.1,4.5-3,12.1-4.2,14.4-2.3,1.4,1.2,1.3,1.6-.9,3.9a16.331,16.331,0,0,0-4.6,10.5c0,5.2,9.2,6.4,23.8,3l8.3-1.9,4.1-8.2,4.1-8.3-1.2-6.8c-1.7-9.2-6.4-18.4-12.1-23.5C417.2-279.7,400.9-282.9,362.5-281Z"/><path d="M253.1-265.3c-3.7,31.4-6.4,79-5.2,90.8l.6,6,1.3-7c6.2-33.6,18.1-92.6,19.8-97.8.5-1.5-.3-1.7-7.4-1.7h-8Z"/><path d="M478-274.1c0,.6,1.3,6.3,2.9,12.8,1.5,6.5,6.4,29.7,10.7,51.5,4.3,21.9,8.2,39.8,8.7,39.8,2.3,0-1.1-61.3-5.3-95.5-.6-4.4-1-8.3-1-8.7,0-.5-3.6-.8-8-.8S478-274.6,478-274.1Z"/></g></svg>