<svg xmlns="http://www.w3.org/2000/svg" width="1200" height="30" viewBox="0 0 1200 30"><g transform="translate(-50 -1867)"><path d="M5,0H1195a5,5,0,0,1,5,5V30a0,0,0,0,1,0,0H0a0,0,0,0,1,0,0V5A5,5,0,0,1,5,0Z" transform="translate(50 1867)" fill="#ebe8e8"/><circle cx="7.5" cy="7.5" r="7.5" transform="translate(102 1875)" fill="#00c13e"/><circle cx="7.5" cy="7.5" r="7.5" transform="translate(81 1875)" fill="#ffb438"/><circle cx="7.5" cy="7.5" r="7.5" transform="translate(61 1875)" fill="#ff5954"/><circle cx="2.5" cy="2.5" r="2.5" transform="translate(66 1880)" fill="#3b0103"/></g></svg>