<svg xmlns="http://www.w3.org/2000/svg" width="71.765" height="67.134" viewBox="0 0 71.765 67.134"><g transform="translate(1 1)"><g transform="translate(-1 -1)"><rect width="71.765" height="67.134" fill="none"/></g><g transform="translate(-1 -1)"><path d="M66.3,52.64H44.761a19.454,19.454,0,0,0,6.866,11.748h3.75a1.683,1.683,0,0,1,0,3.357H17.935a1.683,1.683,0,0,1,0-3.357h3.749A19.454,19.454,0,0,0,28.55,52.64H7.014a6.49,6.49,0,0,1-6.24-6.713V7.324A6.49,6.49,0,0,1,7.014.611H66.3a6.49,6.49,0,0,1,6.24,6.713v38.6A6.49,6.49,0,0,1,66.3,52.64ZM26.355,64.388h20.6a22.028,22.028,0,0,1-5.4-11.748H31.751A22.028,22.028,0,0,1,26.355,64.388ZM69.419,7.324A3.246,3.246,0,0,0,66.3,3.968H7.014a3.246,3.246,0,0,0-3.12,3.357V39.213H69.419Zm0,35.245H3.894v3.357a3.246,3.246,0,0,0,3.12,3.357H66.3a3.246,3.246,0,0,0,3.12-3.357ZM36.656,47.6a1.683,1.683,0,1,1,1.56-1.678A1.621,1.621,0,0,1,36.656,47.6Z" transform="translate(-0.774 -0.611)" fill-rule="evenodd"/></g></g></svg>