<svg xmlns="http://www.w3.org/2000/svg" width="37" height="67" viewBox="0 0 37 67"><g transform="translate(1 1)"><g transform="translate(-1 -1)"><rect width="37" height="67" fill="none"/></g><g transform="translate(-1 -1)"><path d="M35.542,58.168H2.926V6.562H35.542ZM16.7,63.408A2.608,2.608,0,1,1,19.3,65.979,2.589,2.589,0,0,1,16.7,63.408M37.731,65.74h0V3.895h0V3.882h0A2.6,2.6,0,0,0,35.1,1.327H3.363A2.6,2.6,0,0,0,.736,3.882h0V65.74h0c0,.027,0,.053,0,.081A2.587,2.587,0,0,0,3.4,68.327c.022,0,.043,0,.065,0v0H35.14a2.553,2.553,0,0,0,2.594-2.506c0-.027,0-.054,0-.081" transform="translate(-0.735 -1.327)" fill="#333"/></g></g></svg>