<svg xmlns="http://www.w3.org/2000/svg" width="54.273" height="67.046" viewBox="0 0 54.273 67.046"><g transform="translate(1 1)"><g transform="translate(-1 -1)"><rect width="54.273" height="67.046" fill="none"/></g><g transform="translate(-1 -1)"><path d="M49.919,61.425H6.8V6.474H49.918V61.425ZM26.65,64.56A1.708,1.708,0,1,1,28.356,66.2,1.67,1.67,0,0,1,26.65,64.56M55.493,2.912h0c0-.022,0-.043,0-.065A2.571,2.571,0,0,0,52.868.332l-.069,0v0H3.915v0l-.069,0A2.571,2.571,0,0,0,1.222,2.847c0,.022,0,.043,0,.065h0V64.8h.07c0,.024,0,.045,0,.068a2.565,2.565,0,0,0,2.619,2.509c.023,0,.046,0,.068,0v0H52.742v0c.023,0,.045,0,.069,0a2.566,2.566,0,0,0,2.619-2.509c0-.023,0-.044-.005-.068h.07l0-61.889Z" transform="translate(-1.222 -0.332)"/></g></g></svg>